<?xml version="1.0" encoding="UTF-8" standalone="no"?>
<!-- Created with Inkscape (http://www.inkscape.org/) -->

<svg
   version="1.1"
   id="svg1"
   width="400"
   height="400.79999"
   viewBox="0 0 400 400.79999"
   xmlns="http://www.w3.org/2000/svg"
   xmlns:svg="http://www.w3.org/2000/svg">
  <defs
     id="defs1" />
  <g
     id="g1">
    <path
       style="fill:#000000;fill-opacity:1;fill-rule:evenodd;stroke-width:1.10226"
       id="path1"
       d="M 191.70559,283.95483 A 93.975952,87.336731 0 0 1 100.072,371.26443 93.975952,87.336731 0 0 1 3.8704521,288.30723 93.975952,87.336731 0 0 1 90.708379,196.8622 93.975952,87.336731 0 0 1 191.23881,275.26085" />
    <path
       style="fill:#000000;fill-opacity:1;fill-rule:evenodd;stroke-width:1.16613"
       id="path1-7"
       d="m 398.70123,283.53888 a 101.88744,90.210251 0 0 1 -99.34789,90.18222 101.88744,90.210251 0 0 1 -104.3004,-85.68662 101.88744,90.210251 0 0 1 94.14849,-94.45372 101.88744,90.210251 0 0 1 108.99372,80.97809" />
    <path
       style="fill:#000000;fill-opacity:1;fill-rule:evenodd;stroke-width:1.04063"
       id="path1-7-2"
       d="m 275.35988,107.06773 a 82.846649,82.51757 0 0 1 -80.78169,82.49194 82.846649,82.51757 0 0 1 -84.80867,-78.3797 82.846649,82.51757 0 0 1 76.55396,-86.399174 82.846649,82.51757 0 0 1 88.6249,74.07268" />
    <path
       style="fill:none;stroke:#ffffff;stroke-width:17.6361;stroke-linecap:butt;stroke-linejoin:miter;stroke-dasharray:none;stroke-opacity:1"
       d="m 17.083695,284.25843 c 0,0 14.501945,-5.81401 22.021472,-19.29196 7.519527,-13.47796 1.074218,-35.67692 1.074218,-35.67692 0,0 17.456045,6.60684 33.56932,-0.52855 16.113275,-7.13539 22.558564,-22.46326 22.558564,-22.46326 0,0 6.445321,14.00649 20.141591,21.40616 13.69629,7.39968 36.52343,1.32137 36.52343,1.32137 0,0 -8.86229,16.38496 -0.53712,31.97709 8.32519,15.59214 24.70702,23.25607 24.70702,23.25607 0,0 -16.91893,6.60684 -24.97557,23.25607 -8.05662,16.64923 1.07421,30.39146 1.07421,30.39146 0,0 -21.48435,-2.90701 -33.56931,0.79282 -12.08495,3.69981 -22.290027,21.67042 -22.290027,21.67042 0,0 -7.788069,-14.00649 -23.095679,-20.08479 -15.307612,-6.07828 -31.15233,0 -31.15233,0 0,0 3.759764,-19.55623 -2.41699,-31.71282 -6.176755,-12.15658 -23.632799,-24.31316 -23.632799,-24.31316 z"
       id="path2" />
    <path
       style="fill:none;stroke:#ffffff;stroke-width:18.6579;stroke-linecap:butt;stroke-linejoin:miter;stroke-dasharray:none;stroke-opacity:1"
       d="m 205.75279,285.30754 c 0,0 16.43776,-5.74092 24.96103,-19.04939 8.52329,-13.30847 1.2176,-35.22832 1.2176,-35.22832 0,0 19.7862,6.52376 38.05037,-0.5219 18.26418,-7.04567 25.56986,-22.1808 25.56986,-22.1808 0,0 7.30567,13.83037 22.83022,21.13699 15.52456,7.30663 41.39879,1.30477 41.39879,1.30477 0,0 -10.04529,16.17892 -0.60879,31.575 9.43649,15.39608 28.00506,22.96365 28.00506,22.96365 0,0 -19.17738,6.52375 -28.30946,22.96364 -9.1321,16.43989 1.21759,30.00932 1.21759,30.00932 0,0 -24.35223,-2.87046 -38.05037,0.78285 -13.69812,3.6533 -25.26544,21.39793 -25.26544,21.39793 0,0 -8.82767,-13.83037 -26.17864,-19.83224 -17.35097,-6.00184 -35.31073,0 -35.31073,0 0,0 4.26161,-19.31033 -2.73963,-31.31406 -7.00127,-12.00371 -26.78746,-24.00744 -26.78746,-24.00744 z"
       id="path2-9" />
    <path
       style="fill:none;stroke:#ffffff;stroke-width:19.8539;stroke-linecap:butt;stroke-linejoin:miter;stroke-dasharray:none;stroke-opacity:1"
       d="m 122.52984,107.04209 c 0,0 12.58513,-5.28702 19.11076,-17.543275 6.52561,-12.25626 0.93222,-32.443053 0.93222,-32.443053 0,0 15.14878,6.007977 29.13225,-0.480639 13.98348,-6.488614 19.57686,-20.427109 19.57686,-20.427109 0,0 5.59339,12.7369 17.47935,19.465834 11.88597,6.728933 31.69588,1.201594 31.69588,1.201594 0,0 -7.6909,14.899773 -0.46611,29.078583 7.22479,14.178805 21.44133,21.148065 21.44133,21.148065 0,0 -14.68265,6.00797 -21.67439,21.14806 -6.99173,15.14009 0.93223,27.63668 0.93223,27.63668 0,0 -18.64463,-2.64352 -29.13224,0.72096 -10.48761,3.36445 -19.34382,19.70613 -19.34382,19.70613 0,0 -6.75867,-12.7369 -20.04297,-18.26423 -13.28431,-5.52733 -27.03473,0 -27.03473,0 0,0 3.26281,-17.7836 -2.09751,-28.83826 -5.36034,-11.05467 -20.50911,-22.10934 -20.50911,-22.10934 z"
       id="path2-9-6" />
  </g>
</svg>
